<svg xmlns="http://www.w3.org/2000/svg" viewBox="0 0 400 500" width="400" height="500">
  <defs>
    <linearGradient id="g3" x1="0%" y1="0%" x2="100%" y2="100%">
      <stop offset="0%" stop-color="#F5F0E8"/>
      <stop offset="100%" stop-color="#E8DFD4"/>
    </linearGradient>
    <pattern id="cotton" width="30" height="30" patternUnits="userSpaceOnUse">
      <line x1="0" y1="15" x2="30" y2="15" stroke="#C4B8A8" stroke-width="0.5"/>
      <line x1="15" y1="0" x2="15" y2="30" stroke="#C4B8A8" stroke-width="0.5"/>
    </pattern>
  </defs>
  <rect width="400" height="500" fill="#E8DFD4"/>
  <rect x="20" y="20" width="360" height="460" fill="url(#g3)" rx="4"/>
  <rect x="20" y="20" width="360" height="460" fill="url(#cotton)"/>
  <path d="M60 60 L340 60 L320 440 L80 440 Z" fill="#FFF8F0" opacity="0.9"/>
  <path d="M260 60 L340 60 L320 440 L240 440 Z" fill="#4A90A4" opacity="0.7"/>
  <path d="M60 60 Q200 40 340 60" fill="none" stroke="#4A90A4" stroke-width="3"/>
  <path d="M80 440 Q200 455 320 440" fill="none" stroke="#4A90A4" stroke-width="2"/>
  <g fill="#4A90A4" opacity="0.5">
    <circle cx="170" cy="220" r="30" fill="none" stroke="#4A90A4" stroke-width="1"/>
    <circle cx="170" cy="220" r="5"/>
    <circle cx="140" cy="300" r="8"/>
    <circle cx="200" cy="320" r="6"/>
  </g>
  <text x="200" y="480" text-anchor="middle" fill="#6B5344" font-family="Georgia,serif" font-size="14">Cotton Handloom</text>
</svg>
