<svg xmlns="http://www.w3.org/2000/svg" viewBox="0 0 400 500" width="400" height="500">
  <defs>
    <linearGradient id="g8" x1="0%" y1="0%" x2="100%" y2="100%">
      <stop offset="0%" stop-color="#B71C1C"/>
      <stop offset="50%" stop-color="#D32F2F"/>
      <stop offset="100%" stop-color="#880E0E"/>
    </linearGradient>
    <linearGradient id="gold" x1="0%" y1="0%" x2="100%" y2="0%">
      <stop offset="0%" stop-color="#B8944A"/>
      <stop offset="50%" stop-color="#FFE082"/>
      <stop offset="100%" stop-color="#B8944A"/>
    </linearGradient>
    <pattern id="bro" width="20" height="20" patternUnits="userSpaceOnUse">
      <rect width="20" height="20" fill="none"/>
      <circle cx="10" cy="10" r="3" fill="#FFD700" opacity="0.3"/>
    </pattern>
  </defs>
  <rect width="400" height="500" fill="#4A0000"/>
  <rect x="20" y="20" width="360" height="460" fill="url(#g8)" rx="4"/>
  <rect x="20" y="20" width="360" height="460" fill="url(#bro)"/>
  <path d="M60 60 L340 60 L320 440 L80 440 Z" fill="#C62828" opacity="0.5"/>
  <path d="M230 60 L340 60 L320 440 L210 440 Z" fill="#8B0000"/>
  <path d="M60 60 Q200 30 340 60" fill="none" stroke="url(#gold)" stroke-width="6"/>
  <path d="M80 440 Q200 470 320 440" fill="none" stroke="url(#gold)" stroke-width="6"/>
  <rect x="210" y="60" width="12" height="380" fill="url(#gold)"/>
  <g fill="#FFD700" opacity="0.9">
    <circle cx="160" cy="200" r="35" fill="none" stroke="#FFD700" stroke-width="2"/>
    <circle cx="160" cy="200" r="15"/>
    <circle cx="160" cy="320" r="25" fill="none" stroke="#FFD700" stroke-width="1.5"/>
  </g>
  <text x="200" y="480" text-anchor="middle" fill="#FFD700" font-family="Georgia,serif" font-size="14">Bridal Banarasi</text>
</svg>
